<mxfile host="app.diagrams.net" modified="2022-03-17T13:52:08.449Z" agent="5.0 (Windows NT 10.0; Win64; x64) AppleWebKit/537.36 (KHTML, like Gecko) Chrome/99.0.4844.51 Safari/537.36" etag="BPqpCF8TPwGRNTKrQ8Nq" version="17.1.3" type="github">
  <diagram id="C5RBs43oDa-KdzZeNtuy" name="Page-1">
    <mxGraphModel dx="1021" dy="567" grid="1" gridSize="10" guides="1" tooltips="1" connect="1" arrows="1" fold="1" page="1" pageScale="1" pageWidth="827" pageHeight="1169" math="0" shadow="0">
      <root>
        <mxCell id="WIyWlLk6GJQsqaUBKTNV-0" />
        <mxCell id="WIyWlLk6GJQsqaUBKTNV-1" parent="WIyWlLk6GJQsqaUBKTNV-0" />
        <mxCell id="kwp5cQmBncjfe89Hnnms-8" value="" style="edgeStyle=orthogonalEdgeStyle;rounded=0;orthogonalLoop=1;jettySize=auto;html=1;startArrow=none;" parent="WIyWlLk6GJQsqaUBKTNV-1" source="kwp5cQmBncjfe89Hnnms-3" target="kwp5cQmBncjfe89Hnnms-7" edge="1">
          <mxGeometry relative="1" as="geometry" />
        </mxCell>
        <mxCell id="kwp5cQmBncjfe89Hnnms-0" value="Início" style="rounded=1;whiteSpace=wrap;html=1;" parent="WIyWlLk6GJQsqaUBKTNV-1" vertex="1">
          <mxGeometry x="365" y="40" width="50" height="30" as="geometry" />
        </mxCell>
        <mxCell id="QzkUYSt6bilC9rGFEcQx-15" value="" style="edgeStyle=orthogonalEdgeStyle;rounded=0;orthogonalLoop=1;jettySize=auto;html=1;" edge="1" parent="WIyWlLk6GJQsqaUBKTNV-1" source="kwp5cQmBncjfe89Hnnms-5" target="QzkUYSt6bilC9rGFEcQx-2">
          <mxGeometry relative="1" as="geometry" />
        </mxCell>
        <mxCell id="kwp5cQmBncjfe89Hnnms-5" value="n1 + n3" style="rounded=0;whiteSpace=wrap;html=1;" parent="WIyWlLk6GJQsqaUBKTNV-1" vertex="1">
          <mxGeometry x="315" y="270" width="150" height="70" as="geometry" />
        </mxCell>
        <mxCell id="kwp5cQmBncjfe89Hnnms-9" value="" style="edgeStyle=orthogonalEdgeStyle;rounded=0;orthogonalLoop=1;jettySize=auto;html=1;" parent="WIyWlLk6GJQsqaUBKTNV-1" source="kwp5cQmBncjfe89Hnnms-7" target="kwp5cQmBncjfe89Hnnms-5" edge="1">
          <mxGeometry relative="1" as="geometry" />
        </mxCell>
        <mxCell id="kwp5cQmBncjfe89Hnnms-7" value="Entrada(n2)" style="shape=parallelogram;perimeter=parallelogramPerimeter;whiteSpace=wrap;html=1;fixedSize=1;" parent="WIyWlLk6GJQsqaUBKTNV-1" vertex="1">
          <mxGeometry x="310" y="180" width="160" height="60" as="geometry" />
        </mxCell>
        <mxCell id="kwp5cQmBncjfe89Hnnms-3" value="Entrada(n1)" style="shape=parallelogram;perimeter=parallelogramPerimeter;whiteSpace=wrap;html=1;fixedSize=1;" parent="WIyWlLk6GJQsqaUBKTNV-1" vertex="1">
          <mxGeometry x="310" y="90" width="160" height="60" as="geometry" />
        </mxCell>
        <mxCell id="QzkUYSt6bilC9rGFEcQx-0" value="" style="edgeStyle=orthogonalEdgeStyle;rounded=0;orthogonalLoop=1;jettySize=auto;html=1;endArrow=none;" edge="1" parent="WIyWlLk6GJQsqaUBKTNV-1" source="kwp5cQmBncjfe89Hnnms-0" target="kwp5cQmBncjfe89Hnnms-3">
          <mxGeometry relative="1" as="geometry">
            <mxPoint x="475" y="70" as="sourcePoint" />
            <mxPoint x="462.5" y="170" as="targetPoint" />
          </mxGeometry>
        </mxCell>
        <mxCell id="QzkUYSt6bilC9rGFEcQx-6" style="edgeStyle=orthogonalEdgeStyle;rounded=0;orthogonalLoop=1;jettySize=auto;html=1;entryX=0.5;entryY=0;entryDx=0;entryDy=0;startArrow=none;" edge="1" parent="WIyWlLk6GJQsqaUBKTNV-1" source="QzkUYSt6bilC9rGFEcQx-7" target="QzkUYSt6bilC9rGFEcQx-14">
          <mxGeometry relative="1" as="geometry">
            <mxPoint x="475" y="540" as="targetPoint" />
            <Array as="points">
              <mxPoint x="390" y="520" />
            </Array>
          </mxGeometry>
        </mxCell>
        <mxCell id="QzkUYSt6bilC9rGFEcQx-19" value="" style="edgeStyle=orthogonalEdgeStyle;rounded=0;orthogonalLoop=1;jettySize=auto;html=1;" edge="1" parent="WIyWlLk6GJQsqaUBKTNV-1" source="QzkUYSt6bilC9rGFEcQx-2" target="QzkUYSt6bilC9rGFEcQx-9">
          <mxGeometry relative="1" as="geometry" />
        </mxCell>
        <mxCell id="QzkUYSt6bilC9rGFEcQx-2" value="se &lt;br&gt;n1 &amp;gt; n2" style="rhombus;whiteSpace=wrap;html=1;" vertex="1" parent="WIyWlLk6GJQsqaUBKTNV-1">
          <mxGeometry x="350" y="380" width="80" height="80" as="geometry" />
        </mxCell>
        <mxCell id="QzkUYSt6bilC9rGFEcQx-7" value="Falso" style="text;html=1;resizable=0;autosize=1;align=center;verticalAlign=middle;points=[];fillColor=none;strokeColor=none;rounded=0;" vertex="1" parent="WIyWlLk6GJQsqaUBKTNV-1">
          <mxGeometry x="370" y="480" width="40" height="20" as="geometry" />
        </mxCell>
        <mxCell id="QzkUYSt6bilC9rGFEcQx-8" value="" style="edgeStyle=orthogonalEdgeStyle;rounded=0;orthogonalLoop=1;jettySize=auto;html=1;entryX=0.5;entryY=0;entryDx=0;entryDy=0;endArrow=none;" edge="1" parent="WIyWlLk6GJQsqaUBKTNV-1" source="QzkUYSt6bilC9rGFEcQx-2" target="QzkUYSt6bilC9rGFEcQx-7">
          <mxGeometry relative="1" as="geometry">
            <mxPoint x="475" y="450" as="sourcePoint" />
            <mxPoint x="475" y="540" as="targetPoint" />
            <Array as="points">
              <mxPoint x="390" y="480" />
            </Array>
          </mxGeometry>
        </mxCell>
        <mxCell id="QzkUYSt6bilC9rGFEcQx-18" value="" style="edgeStyle=orthogonalEdgeStyle;rounded=0;orthogonalLoop=1;jettySize=auto;html=1;" edge="1" parent="WIyWlLk6GJQsqaUBKTNV-1" source="QzkUYSt6bilC9rGFEcQx-9" target="QzkUYSt6bilC9rGFEcQx-13">
          <mxGeometry relative="1" as="geometry" />
        </mxCell>
        <mxCell id="QzkUYSt6bilC9rGFEcQx-9" value="Verdadeiro" style="text;html=1;resizable=0;autosize=1;align=center;verticalAlign=middle;points=[];fillColor=none;strokeColor=none;rounded=0;" vertex="1" parent="WIyWlLk6GJQsqaUBKTNV-1">
          <mxGeometry x="480" y="410" width="70" height="20" as="geometry" />
        </mxCell>
        <mxCell id="QzkUYSt6bilC9rGFEcQx-22" value="" style="edgeStyle=orthogonalEdgeStyle;rounded=0;orthogonalLoop=1;jettySize=auto;html=1;" edge="1" parent="WIyWlLk6GJQsqaUBKTNV-1" source="QzkUYSt6bilC9rGFEcQx-13" target="QzkUYSt6bilC9rGFEcQx-20">
          <mxGeometry relative="1" as="geometry" />
        </mxCell>
        <mxCell id="QzkUYSt6bilC9rGFEcQx-13" value="n1 é maior que n2" style="shape=document;whiteSpace=wrap;html=1;boundedLbl=1;" vertex="1" parent="WIyWlLk6GJQsqaUBKTNV-1">
          <mxGeometry x="580" y="390" width="120" height="60" as="geometry" />
        </mxCell>
        <mxCell id="QzkUYSt6bilC9rGFEcQx-21" value="" style="edgeStyle=orthogonalEdgeStyle;rounded=0;orthogonalLoop=1;jettySize=auto;html=1;" edge="1" parent="WIyWlLk6GJQsqaUBKTNV-1" source="QzkUYSt6bilC9rGFEcQx-14" target="QzkUYSt6bilC9rGFEcQx-20">
          <mxGeometry relative="1" as="geometry" />
        </mxCell>
        <mxCell id="QzkUYSt6bilC9rGFEcQx-14" value="n2 é maior que n1" style="shape=document;whiteSpace=wrap;html=1;boundedLbl=1;" vertex="1" parent="WIyWlLk6GJQsqaUBKTNV-1">
          <mxGeometry x="330" y="530" width="120" height="60" as="geometry" />
        </mxCell>
        <mxCell id="QzkUYSt6bilC9rGFEcQx-20" value="Fim" style="rounded=1;whiteSpace=wrap;html=1;" vertex="1" parent="WIyWlLk6GJQsqaUBKTNV-1">
          <mxGeometry x="580" y="530" width="120" height="60" as="geometry" />
        </mxCell>
      </root>
    </mxGraphModel>
  </diagram>
</mxfile>
